<svg version="1.1" id="Capa_1" xmlns="http://www.w3.org/2000/svg" xmlns:xlink="http://www.w3.org/1999/xlink" x="0px" y="0px"
	 viewBox="0 0 168 168" style="enable-background:new 0 0 168 168;" xml:space="preserve">
<g>
	<path d="M7.8,84c0-3.5,0.2-7,0.7-10.4c0.4-3.4,1.2-6.8,2.2-10.2c0.9-3.3,2.1-6.5,3.3-9.5c1.3-3.1,2.7-6.1,4.4-9
		c1.6-2.9,3.5-5.6,5.5-8.2c2.1-2.6,4.3-5,6.6-7.4c4.7-4.7,10-8.8,15.7-12.1c2.9-1.7,5.9-3.2,9-4.5c3.1-1.3,6.2-2.4,9.5-3.3
		c3.3-0.9,6.7-1.7,10.1-2.1c3.4-0.5,6.8-0.7,10.3-0.7c3.6,0,7.1,0.2,10.5,0.7c3.4,0.5,6.7,1.2,10.1,2.1c3.3,0.9,6.6,2.1,9.6,3.3
		c3.1,1.3,6,2.8,8.9,4.5c2.8,1.7,5.6,3.5,8.2,5.5c2.6,2,5.1,4.2,7.4,6.6c2.3,2.3,4.5,4.8,6.6,7.4c2,2.6,3.9,5.3,5.7,8.2
		c1.7,2.9,3.1,5.9,4.4,9c1.2,3.1,2.3,6.3,3.3,9.5c2,6.7,2.9,13.6,2.9,20.6c0,7.1-1,14-2.9,20.6c-1,3.2-2,6.4-3.3,9.5
		c-1.2,3.1-2.7,6-4.4,8.9c-1.7,2.9-3.6,5.7-5.7,8.2c-2,2.6-4.2,5.1-6.5,7.4c-2.3,2.4-4.8,4.6-7.5,6.6c-2.7,2-5.4,3.8-8.2,5.6
		c-5.7,3.4-11.9,6-18.4,7.9c-3.3,0.9-6.7,1.6-10.1,2.1c-3.4,0.4-6.9,0.6-10.5,0.6c-3.5,0-7-0.2-10.3-0.6c-3.4-0.4-6.7-1.1-10.1-2.1
		c-6.5-1.8-12.6-4.5-18.4-7.9c-5.8-3.4-11-7.5-15.7-12.1c-2.3-2.3-4.5-4.8-6.6-7.4c-2.1-2.6-3.9-5.3-5.5-8.2
		c-1.6-2.8-3.1-5.8-4.4-8.9c-1.3-3.1-2.4-6.3-3.4-9.6c-0.9-3.3-1.6-6.7-2.1-10.1C8,91,7.8,87.6,7.8,84z M37.2,81.4
		c0.1-5.7,0.6-11.1,1.3-16.3c0.8-5.2,1.8-10.1,3.2-14.8c-1.2-0.5-2.5-1.1-3.7-1.7c-1.2-0.6-2.4-1.2-3.5-1.8c-1-0.5-2.1-1.1-3.1-1.8
		s-2.2-1.3-3.2-1.9c-2,2.8-3.7,5.7-5.2,8.7c-1.5,3-2.8,6.1-3.8,9.2c-1.3,3.2-2.2,6.5-2.7,9.8c-0.5,3.4-0.9,6.9-1,10.5H37.2z
		 M28.6,126.3c1.1-0.7,2.1-1.4,3.3-2.1c1.1-0.6,2.2-1.3,3.3-2c1-0.6,2.1-1.2,3.3-1.8c1.2-0.6,2.5-1.1,3.9-1.7
		c-0.7-2.1-1.4-4.4-2-6.8s-1.1-5-1.5-7.6c-0.4-2.6-0.8-5.2-1.1-8c-0.3-2.8-0.5-5.6-0.6-8.5H15.5c0.2,7.1,1.4,14,3.8,20.4
		C21.6,114.8,24.7,120.7,28.6,126.3z M32.5,37.8c1.6,1.1,3.4,2.1,5.2,3.1c1.9,1,3.9,1.9,6.2,2.9c1.1-2.7,2.2-5.2,3.4-7.7
		c1.2-2.5,2.5-4.7,3.9-6.9c1.3-2.1,2.7-4.1,4.2-5.9c1.5-1.8,3-3.5,4.6-5.1c-2.7,1.1-5.3,2.2-7.7,3.5c-2.5,1.3-4.9,2.7-7.3,4.5
		c-2.3,1.7-4.5,3.5-6.6,5.4C36.3,33.4,34.4,35.5,32.5,37.8z M61.6,151c-1.7-1.5-3.3-3.1-4.8-4.9c-1.5-1.8-3-3.8-4.5-5.8
		c-1.5-2.2-2.8-4.4-4-6.8c-1.2-2.4-2.4-5-3.4-7.8c-1.1,0.4-2.2,0.9-3.2,1.4c-1,0.5-2.1,1-3.1,1.5c-2,0.9-3.8,1.9-5.5,3.1
		c2,2.1,4,4.2,6.2,6.1c2.1,2,4.4,3.8,6.9,5.4c2.5,1.6,5,3.1,7.5,4.4C56.1,148.9,58.7,150.1,61.6,151z M82.2,81.4V58.5
		c-6.5-0.2-12.4-0.8-17.7-1.8c-2.8-0.6-5.5-1.2-8-1.8c-2.6-0.6-5.1-1.4-7.4-2.1c-0.6,2.1-1.2,4.3-1.7,6.6c-0.5,2.3-0.9,4.6-1.3,7
		c-0.4,2.5-0.7,5-0.9,7.5c-0.2,2.5-0.3,5-0.3,7.5H82.2z M49.4,116.6c2.4-0.8,4.9-1.6,7.4-2.2c2.5-0.6,5.1-1.2,7.8-1.8
		c2.8-0.4,5.7-0.7,8.6-1c2.9-0.3,5.9-0.5,9-0.6V88H44.8c0,2.6,0.1,5.2,0.4,7.7c0.3,2.5,0.6,5,0.9,7.4c0.3,2,0.7,4,1.2,5.9
		c0.5,1.9,1,3.8,1.5,5.7L49.4,116.6z M82.2,13.5c-1.8,0.1-3.5,0.4-5,0.9c-1.6,0.5-3.1,1.1-4.7,2c-1.5,0.9-2.8,2-4.2,3.1
		c-1.3,1.1-2.7,2.4-4,3.9c-1.3,1.5-2.5,3-3.7,4.6c-1.2,1.6-2.3,3.4-3.4,5.3c-1.1,2-2.2,4.1-3.2,6.2c-1,2.1-2,4.4-2.9,6.7
		c2.1,0.7,4.3,1.3,6.6,1.8c2.3,0.5,4.7,1,7.1,1.5l0.9,0.2c2.6,0.4,5.2,0.7,8,0.9c2.8,0.2,5.6,0.3,8.5,0.3V13.5z M82.2,118.7
		c-2.9,0-5.7,0.1-8.4,0.4c-2.7,0.3-5.3,0.6-8,1c-2.5,0.3-4.9,0.8-7.2,1.3c-2.3,0.5-4.6,1.2-7,1.9c0.8,2.3,1.8,4.5,2.8,6.6
		c1,2.1,2.1,4.1,3.3,5.9s2.4,3.6,3.6,5.2c1.3,1.6,2.6,3.1,3.9,4.5c1.3,1.3,2.7,2.6,4,3.7c1.3,1.1,2.7,2.1,4.2,2.8
		c1.5,0.7,2.9,1.3,4.4,1.8c1.5,0.5,2.9,0.9,4.4,1.1V118.7z M88.3,50.9c2.9,0,5.7-0.1,8.5-0.3c2.8-0.2,5.4-0.5,8-0.9l0.9-0.2
		c2.5-0.5,4.8-1,7.1-1.5c2.3-0.5,4.5-1.1,6.6-1.8c-1.8-4.6-3.9-8.8-6.1-12.7c-1.1-2-2.3-3.8-3.4-5.4c-1.2-1.7-2.4-3.2-3.6-4.7
		c-1.3-1.5-2.6-2.7-4-3.9c-1.4-1.1-2.8-2.2-4.3-3.1c-2.9-1.8-6.1-2.8-9.7-2.9V50.9z M120.7,53.2c-2.3,0.8-4.8,1.5-7.3,2.1
		c-2.5,0.6-5.1,1.1-7.8,1.6c-2.7,0.4-5.5,0.8-8.3,1.1c-2.9,0.3-5.9,0.5-9,0.6v22.9h36.5c0-2.6-0.1-5.1-0.3-7.5
		c-0.2-2.5-0.5-4.9-0.9-7.3c-0.3-2.3-0.8-4.6-1.3-6.8C121.9,57.5,121.3,55.3,120.7,53.2z M88.3,88v23.1c3.1,0.1,6.1,0.3,8.9,0.6
		c2.8,0.3,5.6,0.6,8.2,1l0.7,0.2c2.5,0.5,5,1,7.3,1.6c2.4,0.6,4.7,1.2,7,2c1.3-4.4,2.3-9,3-13.6c0.3-2.3,0.6-4.7,0.8-7.2
		c0.2-2.5,0.4-5,0.5-7.6H88.3z M118,123.2c-2.2-0.7-4.4-1.4-6.7-1.9c-2.3-0.5-4.7-1-7.4-1.4c-2.5-0.3-5-0.6-7.6-0.9
		c-2.5-0.3-5.2-0.4-8.1-0.4v36.2c1.5-0.3,2.9-0.8,4.3-1.3c1.4-0.5,2.8-1.2,4.1-2.1c1.5-0.8,2.8-1.7,4.1-2.8c1.3-1.1,2.6-2.3,3.9-3.7
		c1.3-1.3,2.6-2.8,3.8-4.5c1.2-1.6,2.3-3.4,3.4-5.2c1.1-1.8,2.2-3.7,3.2-5.7C116.2,127.7,117.2,125.5,118,123.2z M137.1,131.7
		c-1.7-1.1-3.6-2.2-5.7-3.1s-4.2-1.9-6.5-2.9c-1.1,2.8-2.3,5.5-3.6,8c-1.3,2.5-2.6,4.7-4.1,6.9c-1.5,2.2-3,4.2-4.6,6
		c-1.6,1.8-3.2,3.5-4.9,4.9c5.6-1.8,11-4.5,16.1-8c2.5-1.7,4.9-3.5,7.1-5.4C133.1,136.1,135.1,134,137.1,131.7z M109.1,17.6
		c3.3,3.3,6.4,7.1,9.2,11.3c1.5,2.2,2.8,4.5,4,6.9c1.2,2.5,2.4,5.1,3.5,7.9c1.1-0.5,2.1-1,3.2-1.4c1.1-0.4,2.1-0.9,3-1.4
		c1-0.5,2-1,2.9-1.5c0.9-0.5,1.8-1.1,2.6-1.7c-1.8-2.3-3.8-4.5-6-6.4c-2.1-1.9-4.4-3.7-6.8-5.3c-2.5-1.7-5-3.2-7.5-4.6
		C114.6,19.8,111.9,18.6,109.1,17.6z M132.2,88c0,2.9-0.1,5.7-0.4,8.4c-0.3,2.7-0.6,5.4-1,8.1c-0.4,2.5-1,5-1.5,7.4
		c-0.6,2.4-1.1,4.7-1.8,7c1.2,0.6,2.5,1.1,3.7,1.7s2.5,1.2,3.7,1.8c1.1,0.5,2.2,1.1,3.3,1.8c1.1,0.7,2.2,1.4,3.3,2.1
		c2.1-2.8,3.9-5.7,5.4-8.7c1.6-3,2.9-6,4-9.2c1.1-3.2,2-6.5,2.7-9.9c0.7-3.4,1.2-6.9,1.4-10.5H132.2z M141.9,43.2
		c-0.9,0.6-2,1.3-3.1,1.9c-1.1,0.7-2.3,1.3-3.5,1.9c-1.1,0.6-2.3,1.2-3.5,1.8c-1.2,0.6-2.5,1.2-3.9,1.8c2.7,9,4.1,19.3,4.3,30.6H155
		c-0.2-3.6-0.6-7.1-1.3-10.5c-0.6-3.4-1.5-6.7-2.6-9.8c-1.1-3.2-2.4-6.3-3.9-9.2c-1.5-3-3.2-5.9-5.2-8.7L141.9,43.2z"/>
</g>
</svg>
